<?xml version="1.0" encoding="UTF-8" standalone="no"?>
<!-- Created with Inkscape (http://www.inkscape.org/) -->

<svg
   width="165"
   height="65"
   viewBox="0 0 43.656247 17.197916"
   version="1.1"
   id="svg1"
   sodipodi:docname="Zahr_Aylol.svg"
   inkscape:version="1.3.2 (091e20e, 2023-11-25, custom)"
   xmlns:inkscape="http://www.inkscape.org/namespaces/inkscape"
   xmlns:sodipodi="http://sodipodi.sourceforge.net/DTD/sodipodi-0.dtd"
   xmlns="http://www.w3.org/2000/svg"
   xmlns:svg="http://www.w3.org/2000/svg">
  <sodipodi:namedview
     id="namedview1"
     pagecolor="#505050"
     bordercolor="#eeeeee"
     borderopacity="1"
     inkscape:showpageshadow="0"
     inkscape:pageopacity="0"
     inkscape:pagecheckerboard="0"
     inkscape:deskcolor="#505050"
     inkscape:current-layer="svg1" />
  <defs
     id="defs1" />
  <g
     id="layer1"
     transform="matrix(1.8333333,0,0,1.8571427,-3.4480473e-7,-2.9138469e-6)"
     style="stroke-width:0.541949">
    <g
       id="g97"
       transform="matrix(0.1767813,0,0,0.18148801,16.597901,-11.885855)"
       style="stroke-width:3.02563">
      <path
         id="path51"
         style="font-style:italic;font-weight:900;font-size:94.8741px;font-family:Overlock;-inkscape-font-specification:'Overlock, Heavy Italic';white-space:pre;fill:;fill-rule:evenodd;stroke-width:3.02563"
         d="m -36.044311,77.167382 c -0.71959,0 -1.338991,0.200913 -1.857768,0.602547 -0.502039,0.401633 -0.794824,0.895334 -0.878499,1.481046 0.518775,0.06694 0.778247,0.460184 0.778247,1.179773 0,0.66939 -0.326098,3.054088 -0.978752,7.154086 -0.635916,4.083261 -0.953947,6.367506 -0.953947,6.852811 0,0.937143 0.644129,1.405599 1.932699,1.405599 0.769795,0 1.47248,-0.141842 2.108398,-0.42633 -0.06694,-0.568981 -0.100252,-1.046023 -0.100252,-1.430921 0,-0.53551 0.159014,-1.983299 0.476974,-4.342887 l 0.05013,-0.251148 c 0.217551,-0.903674 0.568892,-1.69823 1.054199,-2.38435 0.485305,-0.702858 0.929034,-1.054199 1.330668,-1.054199 0.552243,0 0.828373,0.468454 0.828373,1.405599 0,0.619184 -0.159015,1.740356 -0.476973,3.363618 -0.31796,1.606533 -0.476974,2.677732 -0.476974,3.213241 0,0.652652 0.208985,1.171082 0.627352,1.555977 0.418368,0.368164 0.929239,0.552421 1.53169,0.552421 0.568978,0 1.095993,-0.1676 1.581298,-0.502295 0.485306,-0.334692 0.828061,-0.80315 1.028878,-1.405598 -0.568978,-0.334695 -0.853178,-0.836462 -0.853178,-1.505852 0,-0.384895 0.167085,-1.406126 0.501778,-3.062862 0.351428,-1.673468 0.5271,-2.660352 0.5271,-2.961576 0,-0.870203 -0.242299,-1.573406 -0.727604,-2.108915 -0.485307,-0.552247 -1.171335,-0.828373 -2.058272,-0.828373 -0.652654,0 -1.339198,0.21757 -2.058789,0.652673 -0.702858,0.418365 -1.31367,1.021112 -1.832447,1.807641 0.535511,-3.213057 0.803569,-5.44733 0.803569,-6.702433 0,-1.506121 -0.636058,-2.259293 -1.907894,-2.259293 z m 54.496931,0 c -0.719591,0 -1.338991,0.200913 -1.857768,0.602547 -0.502039,0.401633 -0.794825,0.895334 -0.878499,1.481046 0.518776,0.06694 0.778247,0.460184 0.778247,1.179773 0,0.652654 -0.276129,2.853093 -0.828373,6.601665 -0.535509,3.748569 -0.803569,5.991429 -0.803569,6.727754 0,1.522857 0.744585,2.284098 2.233973,2.284098 0.635917,0 1.154861,-0.19233 1.556494,-0.577225 0.418366,-0.3849 0.719738,-0.8367 0.903821,-1.355473 -0.535512,-0.334696 -0.803569,-0.836982 -0.803569,-1.506368 0,-0.401634 0.268057,-2.526861 0.803569,-6.375838 0.535509,-3.865713 0.803051,-6.133298 0.803051,-6.802686 0,-1.506121 -0.63554,-2.259293 -1.907377,-2.259293 z m 19.780188,0 c -0.719592,0 -1.338991,0.200913 -1.857768,0.602547 -0.502039,0.401633 -0.794826,0.895334 -0.878499,1.481046 0.518775,0.06694 0.778247,0.460184 0.778247,1.179773 0,0.652654 -0.276129,2.853093 -0.828373,6.601665 -0.535511,3.748569 -0.803052,5.991429 -0.803052,6.727754 0,1.522857 0.744585,2.284098 2.233972,2.284098 0.635916,0 1.154863,-0.19233 1.556494,-0.577225 0.418368,-0.3849 0.719221,-0.8367 0.903304,-1.355473 -0.535509,-0.334696 -0.803052,-0.836982 -0.803052,-1.506368 0,-0.401634 0.267543,-2.526861 0.803052,-6.375838 0.535511,-3.865713 0.803569,-6.133298 0.803569,-6.802686 0,-1.506121 -0.636058,-2.259293 -1.907894,-2.259293 z m -41.9705643,1.656746 c -0.53551,0 -1.2215379,0.05049 -2.0582723,0.150895 -0.3514283,1.221633 -1.4978427,3.907186 -3.4390665,8.05739 -0.6024486,1.28857 -1.2299199,2.568755 -1.8825719,3.840592 -0.652655,1.271836 -1.087796,2.142124 -1.305347,2.610693 -0.217551,0.451838 -0.326595,0.803179 -0.326595,1.054199 0,1.004081 1.104514,1.531612 3.3134926,1.581816 0.1506121,-0.435102 0.8452269,-2.14236 2.0835937,-5.121134 0.7195915,0.0502 1.4308631,0.07545 2.1337199,0.07545 0.7195915,0 1.4222763,-0.02524 2.1083984,-0.07545 0.3012244,1.790611 0.5606962,3.137941 0.778247,4.041613 0.1506123,0.669388 0.6942825,1.004073 1.63142499,1.004073 0.78653026,0 1.6820597,-0.200913 2.68614091,-0.602547 C 1.583776,94.136414 0.99820542,91.8022 0.22840983,88.438528 -0.12301859,86.949143 -0.650549,84.288313 -1.3534057,80.45607 -1.554222,79.368314 -2.3487773,78.824128 -3.7377563,78.824128 Z m -61.5001207,0.225826 c -1.35551,0 -2.033468,0.552257 -2.033468,1.656747 0,0.451835 0.117113,0.970779 0.3514,1.556494 0.635916,-0.31796 1.280046,-0.476974 1.932698,-0.476974 0.652654,0 1.606739,0.100457 2.861841,0.301274 1.255102,0.184083 2.175357,0.275952 2.761072,0.275952 -4.719182,5.422038 -7.530438,8.945084 -8.434111,10.568347 -0.267754,0.502041 -0.401526,0.945255 -0.401526,1.330151 0,0.518777 0.225643,1.00389 0.677478,1.455725 0.635921,-0.200814 1.414335,-0.300756 2.334742,-0.300756 0.903672,0 2.125301,0.108527 3.664892,0.326078 1.539593,0.200817 2.568892,0.301273 3.087667,0.301273 1.188165,0 2.007963,-0.1257 2.459798,-0.376721 0.451837,-0.25102 0.677995,-0.677577 0.677995,-1.280025 0,-0.401634 -0.125703,-0.886746 -0.376721,-1.455725 -0.518777,0.267756 -1.255291,0.401526 -2.209168,0.401526 -0.518775,0 -1.371887,-0.109044 -2.56005,-0.326595 -1.171429,-0.217553 -2.033642,-0.326079 -2.585889,-0.326079 -0.267754,0 -0.460082,0.0081 -0.577226,0.02481 0.585715,-0.870204 1.313642,-1.815703 2.183846,-2.836519 l 6.476608,-7.404716 c 0.334693,-0.384898 0.501778,-0.878596 0.501778,-1.481047 0,-0.669386 -0.192326,-1.196918 -0.577226,-1.581815 -0.451837,0.217552 -1.121207,0.326595 -2.008146,0.326595 -0.953876,0 -2.418321,-0.109043 -4.393014,-0.326595 -1.974694,-0.234285 -3.246292,-0.3514 -3.81527,-0.3514 z m 61.148721,2.962093 c 0.1673468,2.175509 0.3849185,4.367881 0.6526733,6.57686 -0.2342856,0.03347 -0.6694285,0.05013 -1.3053467,0.05013 -0.5689792,0 -1.1212362,-0.01666 -1.6567464,-0.05013 0.9036732,-2.292653 1.6735016,-4.485024 2.3094198,-6.57686 z m -19.27841,1.60662 c -0.736325,0 -1.339071,0.208985 -1.807641,0.627352 -0.451838,0.418368 -0.711308,0.903999 -0.778247,1.456242 0.518774,0.117143 0.778247,0.5437 0.778247,1.280025 0,0.502043 -0.167086,1.840784 -0.501778,4.016293 -0.334695,2.158773 -0.502295,3.305189 -0.502295,3.439066 0,0.937143 0.636057,1.405599 1.907894,1.405599 0.803264,0 1.514537,-0.141842 2.133719,-0.42633 -0.06694,-0.502042 -0.100252,-0.903869 -0.100252,-1.205095 0,-0.953876 0.09994,-2.376419 0.300757,-4.26744 0.602448,-2.309386 1.489391,-3.463871 2.66082,-3.463871 0.518774,0 1.037717,0.208987 1.556494,0.627352 0.284488,-0.234285 0.518717,-0.552313 0.702799,-0.953947 0.184082,-0.401631 0.276469,-0.794873 0.276469,-1.179773 0,-0.886937 -0.427073,-1.330151 -1.280542,-1.330151 -0.535509,0 -1.112495,0.250886 -1.731677,0.752925 -0.60245,0.485308 -1.146635,1.221822 -1.631942,2.209168 0.06694,-0.384898 0.100252,-0.694858 0.100252,-0.929142 0,-1.372246 -0.694097,-2.058273 -2.083077,-2.058273 z m 34.64078,0.02532 c -0.769797,0 -1.4477539,0.208984 -2.033468,0.627352 0.2510203,0.518775 0.3767211,1.096275 0.3767211,1.732194 C 9.516059,87.961497 8.9385583,90.287636 7.8842732,92.98192 7.5328447,90.036616 7.1315322,87.651916 6.6796955,85.827835 6.495614,85.108245 6.2108986,84.572642 5.8260009,84.221215 5.4578379,83.853051 5.0312816,83.668794 4.5459757,83.668794 c -0.4685712,0 -0.9622714,0.167602 -1.4810465,0.502294 -0.5187754,0.317961 -0.9705751,0.744515 -1.3554728,1.280026 0.8199994,0.635918 1.6483853,2.267447 2.4851195,4.894791 0.8534692,2.610613 1.2966818,4.401153 1.3301514,5.371765 -1.3889791,2.393062 -2.8614924,3.589962 -4.4178181,3.589962 -0.46857134,0 -0.92895774,-0.150943 -1.38079429,-0.452169 -0.45183654,-0.301222 -0.73603501,-0.669224 -0.85317791,-1.104325 -1.171428,0.602448 -1.7575154,1.255164 -1.7575154,1.95802 0,0.535512 0.3346854,0.979242 1.0040731,1.330672 0.6693874,0.35142 1.55633009,0.5271 2.66081942,0.5271 0.85346888,0 1.63188428,-0.10046 2.33474118,-0.30128 0.7028568,-0.18408 1.3050842,-0.41831 1.8071248,-0.7028 0.5020406,-0.28449 1.0209843,-0.702973 1.5564941,-1.255218 0.5355102,-0.552245 0.9706529,-1.062601 1.3053467,-1.531173 0.3514283,-0.451837 0.7946415,-1.079309 1.3301513,-1.882572 1.0877548,-1.60653 2.0751548,-3.414246 2.9620928,-5.422408 0.903673,-2.008162 1.355473,-3.623035 1.355473,-4.844665 0,-1.322041 -0.719342,-1.982825 -2.158524,-1.982825 z m 16.693037,0 c -1.957957,0 -3.57283,0.71127 -4.844665,2.13372 -1.255102,1.422445 -1.883089,3.162502 -1.883089,5.22087 0,1.506121 0.435143,2.72775 1.305346,3.664892 0.886938,0.920407 2.083839,1.380794 3.589962,1.380794 1.92449,0 3.539361,-0.744585 4.844665,-2.233972 1.322041,-1.489387 1.982825,-3.263273 1.982825,-5.321639 0,-1.506121 -0.443213,-2.68585 -1.330151,-3.539318 -0.886939,-0.870205 -2.108566,-1.305347 -3.664893,-1.305347 z m -75.00524,0.02481 c -1.405713,0 -2.635928,0.409898 -3.690214,1.229899 -1.037549,0.803265 -1.798791,1.790664 -2.284098,2.962093 -0.485305,1.171427 -0.728121,2.410229 -0.728121,3.715535 0,1.455919 0.292783,2.5685 0.8785,3.338298 0.585712,0.753059 1.347472,1.129646 2.284615,1.129646 0.719591,0 1.414207,-0.242813 2.083593,-0.728121 0.669388,-0.502039 1.2383,-1.213311 1.706873,-2.133719 -0.01674,0.150611 -0.02532,0.360114 -0.02532,0.627868 0,0.753062 0.150428,1.31339 0.451652,1.681551 0.301225,0.368164 0.794925,0.552421 1.481047,0.552421 1.238367,0 2.075338,-0.636059 2.510441,-1.907893 -0.535509,-0.334695 -0.803052,-0.819805 -0.803052,-1.455726 0,-1.355507 0.376071,-3.807353 1.12913,-7.355106 -1.623262,-1.104489 -3.288104,-1.656746 -4.995044,-1.656746 z m -0.476973,2.233972 c 0.518775,0 1.029132,0.301374 1.531173,0.90382 l -0.627352,4.242119 c -0.267757,0.819999 -0.602442,1.489371 -1.004073,2.008146 -0.401634,0.502041 -0.761563,0.753442 -1.079521,0.753442 -0.35143,0 -0.618971,-0.276126 -0.803052,-0.828373 -0.184083,-0.568979 -0.276469,-1.272182 -0.276469,-2.108915 0,-1.271837 0.200914,-2.417734 0.602548,-3.43855 0.401631,-1.020816 0.95389,-1.531689 1.656746,-1.531689 z m 74.82954,0 c 0.502039,0 0.878626,0.301374 1.129647,0.90382 0.267754,0.602451 0.401526,1.380865 0.401526,2.334742 0,1.204896 -0.192329,2.284168 -0.577226,3.238045 -0.368164,0.937142 -0.845206,1.405599 -1.430921,1.405599 -0.485305,0 -0.861893,-0.292785 -1.129646,-0.8785 -0.267756,-0.602448 -0.401526,-1.363691 -0.401526,-2.284098 0,-1.221632 0.18374,-2.309488 0.551904,-3.263366 0.384899,-0.970611 0.870526,-1.456242 1.456242,-1.456242 z" />
      <path
         d="m -89.000577,66.552526 c -1.666247,-0.20043 -3.575165,1.00423 -3.363405,2.847049 0.130016,0.959688 0.07765,3.447217 1.492063,2.30814 2.870894,-0.948557 5.859114,0.06551 8.755347,0.363336 0.940374,0.122592 1.886072,0.215063 2.834811,0.231511 -4.685537,5.754799 -9.54414,11.406782 -13.573867,17.65415 -0.819393,1.302738 -1.430759,2.976147 -0.722428,4.463666 5.10386,2.637566 10.27516,5.689412 15.511927,8.901952 29.75131,18.25116 83.1405079,18.68433 114.404772,2.82699 2.868593,-1.45496 4.554704,-2.43947 4.469118,-2.70238 -0.03523,-0.11915 -1.680222,0.4414 -4.411924,1.46606 -31.945806,11.98281 -82.315729,11.56179 -111.030111,-6.687899 -6.78117,-4.309835 -11.463957,-7.47627 -11.666822,-7.975314 3.075124,-4.690131 6.953123,-8.771074 10.457814,-13.131255 1.402891,-1.734291 2.933086,-3.381512 4.231654,-5.190875 0.763547,-1.497035 0.653035,-3.482678 -0.484057,-4.765349 -2.589834,1.032632 -5.419071,0.403939 -8.109313,0.272781 -2.932898,-0.282883 -5.847532,-0.770703 -8.795579,-0.882563 z"
         style="font-style:italic;font-weight:900;font-size:94.8741px;font-family:Overlock;-inkscape-font-specification:'Overlock, Heavy Italic';white-space:pre;mix-blend-mode:normal;fill:#e90033;fill-opacity:1;fill-rule:evenodd;stroke-width:3.02563"
         id="path55"
         transform="translate(0,-1.039657)" />
    </g>
  </g>
</svg>
